PathFileType	4	(X/Y/Z)	C:/Users/beibeiliu/ov580/test_trc/capture2\sequence.30_training_dense_right.trc
DataRate	CameraRate	NumFrames	NumMarkers	Units	OrigDataRate	OrigDataStartFrame	OrigNumFrames
120	120	8	19	mm	120	201	400
Frame#	Time	ThumbCMC			ThumbMCP			ThumbIP			ThumbTip			IndexMCP			IndexPIP			IndexTip			MiddleMCP			MiddlePIP			MiddleTip			RingMCP			RingPIP			RingTip			PinkyMCP			PinkyPIP			PinkyTip			BackHand1			BackHand2			BackHand3	
		X0	Y0	Z0	X1	Y1	Z1	X2	Y2	Z2	X3	Y3	Z3	X4	Y4	Z4	X5	Y5	Z5	X6	Y6	Z6	X7	Y7	Z7	X8	Y8	Z8	X9	Y9	Z9	X10	Y10	Z10	X11	Y11	Z11	X12	Y12	Z12	X13	Y13	Z13	X14	Y14	Z14	X15	Y15	Z15	X16	Y16	Z16	X17	Y17	Z17	X18	Y18	Z18	
200	1.66667	137.466	71.1645	29.0898	124.686	88.469	7.74213	115.02	87.5811	-22.3001	103.618	75.1736	-39.6139	136.86	60.8441	-43.0947	110.669	69.1155	-60.053	82.4627	73.7465	-50.6987	126.603	37.4297	-49.5769	101.7	46.7527	-62.938	70.8374	58.8678	-47.291	116.66	20.1149	-43.2203	88.4066	32.5888	-52.6351	67.611	50.6545	-32.1001	106.523	4.8382	-29.5821	82.2533	25.6704	-36.5312	72.4285	45.4347	-15.4627	144.6	13.4747	6.3698	144.339	10.6876	40.9132	156.502	40.204	20.1622	
201	1.675	138.744	72.8554	32.0949	125.117	88.3734	4.24067	116.791	89.0388	-18.7769	104.854	76.7523	-40.2193	136.536	60.1825	-42.0911	110.555	67.0871	-61.083	82.6803	74.6118	-56.1233	123.636	37.4695	-46.989	98.9059	52.7705	-60.3504	67.1474	63.7594	-40.4809	113.291	20.2924	-39.3807	85.2069	32.1433	-48.75	68.2546	54.4573	-28.4025	104.798	7.63849	-26.8107	79.2771	23.9007	-33.1527	73.3512	45.1571	-8.04256	140.15	8.73513	6.84967	145.96	12.9229	37.5924	155.404	43.373	22.717	
202	1.68333	137.281	71.1707	29.4395	123.75	86.0049	6.69178	115.783	86.5523	-22.023	105.529	71.3108	-39.4919	134.609	61.2533	-44.96	110.593	67.1444	-60.9467	81.0587	73.2482	-59.6128	122.76	41.8842	-43.3364	91.7617	52.513	-55.0091	68.8392	66.276	-34.4929	109.88	26.4788	-39.3344	79.9237	39.216	-41.3072	67.584	54.3683	-17.7805	100.045	9.54466	-26.5465	77.9554	29.721	-27.4093	72.651	45.5333	1.0586	141.286	9.33319	9.58945	141.889	10.2977	38.0223	154.464	40.7558	21.6977	
203	1.69167	138.356	73.6328	28.3932	124.057	86.7689	5.6298	114.987	82.055	-21.664	104.816	69.5112	-41.6413	131.568	60.4893	-44.4582	111.257	68.9577	-61.1599	79.0425	77.5519	-62.2425	115.598	41.8647	-45.294	88.2398	54.3559	-49.2079	65.6164	64.5769	-22.2955	103.614	25.0889	-35.9578	75.8373	43.6737	-32.9239	69.6649	55.4598	-2.69781	95.9773	14.6532	-25.7703	75.7984	33.9917	-18.5291	75.989	46.1924	7.8171	139.461	10.0579	8.15125	142.248	8.47757	42.2258	155.93	40.219	19.4603	
204	1.7	135.71	70.7762	32.4765	121.979	81.4864	6.14948	114.784	81.9617	-21.5702	104.576	69.6212	-39.4165	129.53	57.4162	-44.6593	108.858	69.4255	-60.7869	77.315	74.399	-63.4499	112.188	40.656	-42.2954	83.512	52.925	-44.1262	66.7486	68.0307	-15.546	98.9996	29.5366	-34.7611	71.9778	44.0276	-23.9315	74.8107	58.398	5.36026	94.16	14.6377	-21.3587	71.59	33.1643	-10.5638	79.5758	46.9627	14.5149	135.864	10.3118	9.4013	141.179	9.87369	39.1607	153.482	39.6082	21.306	
205	1.70833	134.543	70.0205	31.1501	122.226	85.2446	7.44617	114.067	81.8466	-19.8617	104.612	65.9537	-38.6579	127.923	58.3489	-43.5545	106.764	69.5439	-60.3887	82.606	74.647	-64.1976	112.007	39.8865	-38.4801	82.6072	53.6442	-40.633	67.4756	65.6337	-5.68632	94.9132	28.2072	-32.0917	73.945	45.7798	-21.1986	77.8938	57.199	9.53765	94.2924	15.4594	-17.7431	72.6007	35.5783	-7.43988	84.3491	48.2205	20.7262	135.412	6.76304	8.10979	142.649	12.0972	41.0093	152.999	37.3975	20.6854	
206	1.71667	134.927	69.3412	31.1166	120.368	81.86	5.51437	112.503	80.4219	-22.6945	103.889	66.625	-40.2075	128.489	56.9652	-42.5581	108.576	68.1232	-58.4551	78.8316	74.4209	-61.7708	112.583	39.8577	-38.0737	81.168	52.7822	-39.4177	69.7312	65.8539	-5.06246	97.3264	27.309	-28.2973	71.7978	46.4152	-13.6835	80.0818	53.8604	18.6993	92.1236	15.7575	-16.5785	74.7291	38.5679	-3.30059	85.5593	46.351	23.3032	136.53	10.7972	8.39192	139.322	9.25949	38.8171	150.226	37.023	21.1616	
207	1.725	133.402	69.0403	34.9233	119.958	78.5743	7.1366	113.68	80.6401	-21.7244	104.722	68.1019	-39.5838	130.043	58.8772	-41.4652	108.15	65.8646	-58.8373	81.3234	73.8417	-59.5837	108.722	42.8476	-39.5413	81.9012	53.7276	-38.1587	71.9108	66.8577	-2.44819	97.713	28.0945	-25.9258	72.619	47.3963	-9.99217	80.0708	53.6415	18.2259	92.8277	15.9993	-14.6346	72.7101	36.0246	1.96195	88.145	45.5551	25.7817	136.704	9.46117	9.56036	140.26	7.22689	43.7691	152.342	36.9344	25.0447	
